<?xml version="1.0" encoding="UTF-8" standalone="no"?>
<!-- Created with Inkscape (http://www.inkscape.org/) -->

<svg
   width="24"
   height="24"
   viewBox="0 0 6.3499999 6.3500002"
   version="1.1"
   id="svg5"
   inkscape:version="1.1.1 (3bf5ae0d25, 2021-09-20)"
   sodipodi:docname="clipboard.svg"
   xmlns:inkscape="http://www.inkscape.org/namespaces/inkscape"
   xmlns:sodipodi="http://sodipodi.sourceforge.net/DTD/sodipodi-0.dtd"
   xmlns="http://www.w3.org/2000/svg"
   xmlns:svg="http://www.w3.org/2000/svg"
   xmlns:rdf="http://www.w3.org/1999/02/22-rdf-syntax-ns#"
   xmlns:cc="http://creativecommons.org/ns#"
   xmlns:dc="http://purl.org/dc/elements/1.1/">
  <title
     id="title2287">Clipboard</title>
  <sodipodi:namedview
     id="namedview7"
     pagecolor="#ffffff"
     bordercolor="#666666"
     borderopacity="1.0"
     inkscape:pageshadow="2"
     inkscape:pageopacity="0"
     inkscape:pagecheckerboard="true"
     inkscape:document-units="px"
     showgrid="false"
     units="px"
     inkscape:zoom="16"
     inkscape:cx="11.15625"
     inkscape:cy="11.15625"
     inkscape:window-width="1920"
     inkscape:window-height="1057"
     inkscape:window-x="-8"
     inkscape:window-y="-8"
     inkscape:window-maximized="1"
     inkscape:current-layer="layer1">
    <inkscape:grid
       type="xygrid"
       id="grid824" />
  </sodipodi:namedview>
  <defs
     id="defs2" />
  <g
     inkscape:label="Layer 1"
     inkscape:groupmode="layer"
     id="layer1">
    <path
       id="path1000"
       style="fill:#e0e0e0;fill-opacity:1;stroke:#000000;stroke-width:0;stroke-linecap:butt;stroke-linejoin:miter;stroke-miterlimit:4;stroke-dasharray:none;stroke-opacity:1"
       d="M 10 1 L 10 2 L 8 2 L 8 3 L 4 3 L 4 21 L 13 21 L 13 20 L 5 20 L 5 4 L 8 4 L 8 6 L 16 6 L 16 4 L 19 4 L 19 10 L 20 10 L 20 3 L 16 3 L 16 2 L 14 2 L 14 1 L 10 1 z M 11 2 L 13 2 L 13 3 L 15 3 L 15 5 L 9 5 L 9 3 L 11 3 L 11 2 z "
       transform="scale(0.26458334)" />
    <rect
       style="fill:#e0e0e0;fill-opacity:1;fill-rule:evenodd;stroke:none;stroke-width:0;stroke-miterlimit:4;stroke-dasharray:none"
       id="rect1768"
       width="1.5875001"
       height="0.26458335"
       x="1.8520833"
       y="2.3812501" />
    <rect
       style="fill:#e0e0e0;fill-opacity:1;fill-rule:evenodd;stroke:none;stroke-width:0;stroke-miterlimit:4;stroke-dasharray:none"
       id="rect1770"
       width="0.79375005"
       height="0.26458335"
       x="3.7041667"
       y="2.3812501" />
    <rect
       style="fill:#e0e0e0;fill-opacity:1;fill-rule:evenodd;stroke:none;stroke-width:0;stroke-miterlimit:4;stroke-dasharray:none"
       id="rect1772"
       width="1.0583334"
       height="0.26458335"
       x="1.8520833"
       y="2.9104168" />
    <rect
       style="fill:#e0e0e0;fill-opacity:1;fill-rule:evenodd;stroke:none;stroke-width:0;stroke-miterlimit:4;stroke-dasharray:none"
       id="rect1774"
       width="0.26458335"
       height="0.26458335"
       x="3.1750002"
       y="2.9104168" />
    <rect
       style="fill:#e0e0e0;fill-opacity:1;fill-rule:evenodd;stroke:none;stroke-width:0;stroke-miterlimit:4;stroke-dasharray:none"
       id="rect1776"
       width="1.5875001"
       height="0.26458335"
       x="1.8520833"
       y="3.4395833" />
    <rect
       style="fill:#e0e0e0;fill-opacity:1;fill-rule:evenodd;stroke:none;stroke-width:0;stroke-miterlimit:4;stroke-dasharray:none"
       id="rect1778"
       width="1.3229167"
       height="0.26458335"
       x="1.8520833"
       y="3.96875" />
    <path
       id="rect1780"
       style="fill:#e0e0e0;fill-opacity:1;fill-rule:evenodd;stroke:none;stroke-width:0;stroke-miterlimit:4;stroke-dasharray:none"
       d="M 14 11 L 14 22 L 22 22 L 22 11 L 14 11 z M 15 12 L 21 12 L 21 21 L 15 21 L 15 12 z "
       transform="scale(0.26458334)" />
  </g>
  <metadata
     id="metadata2285">
    <rdf:RDF>
      <cc:Work
         rdf:about="">
        <dc:title>Clipboard</dc:title>
      </cc:Work>
    </rdf:RDF>
  </metadata>
</svg>
