<?xml version="1.0" encoding="UTF-8" standalone="no"?>
<!-- Created with Inkscape (http://www.inkscape.org/) -->

<svg
   width="24"
   height="24"
   viewBox="0 0 6.3499999 6.35"
   version="1.1"
   id="svg1"
   inkscape:version="1.4 (86a8ad7, 2024-10-11)"
   sodipodi:docname="reindex.svg"
   xmlns:inkscape="http://www.inkscape.org/namespaces/inkscape"
   xmlns:sodipodi="http://sodipodi.sourceforge.net/DTD/sodipodi-0.dtd"
   xmlns="http://www.w3.org/2000/svg"
   xmlns:svg="http://www.w3.org/2000/svg"
   xmlns:rdf="http://www.w3.org/1999/02/22-rdf-syntax-ns#"
   xmlns:cc="http://creativecommons.org/ns#"
   xmlns:dc="http://purl.org/dc/elements/1.1/">
  <title
     id="title4">Numbers 1, 3, 2, and 4</title>
  <sodipodi:namedview
     id="namedview1"
     pagecolor="#ffffff"
     bordercolor="#666666"
     borderopacity="1.0"
     inkscape:showpageshadow="2"
     inkscape:pageopacity="0.0"
     inkscape:pagecheckerboard="0"
     inkscape:deskcolor="#d1d1d1"
     inkscape:document-units="mm"
     showgrid="true"
     inkscape:zoom="5.6568543"
     inkscape:cx="4.331029"
     inkscape:cy="-16.528621"
     inkscape:window-width="1920"
     inkscape:window-height="1054"
     inkscape:window-x="-4"
     inkscape:window-y="-4"
     inkscape:window-maximized="1"
     inkscape:current-layer="text3">
    <inkscape:grid
       id="grid1"
       units="px"
       originx="0"
       originy="0"
       spacingx="0.26458332"
       spacingy="0.26458332"
       empcolor="#0099e5"
       empopacity="0.30196078"
       color="#0099e5"
       opacity="0.14901961"
       empspacing="1"
       enabled="true"
       visible="true" />
  </sodipodi:namedview>
  <defs
     id="defs1" />
  <g
     inkscape:label="Layer 1"
     inkscape:groupmode="layer"
     id="layer1">
    <g
       id="text1"
       style="font-size:4.23333px;line-height:0.75;font-family:Consolas;-inkscape-font-specification:Consolas;fill:#e0e0e0;stroke-width:0.264583"
       aria-label="13&#10;24">
      <g
         id="text3"
         style="font-weight:bold;-inkscape-font-specification:'Consolas Bold';stroke-width:0.0700042"
         aria-label="13&#10;24">
        <path
           d="M 0.79374997,2.9104165 V 2.4618654 H 1.4820795 V 0.72553879 L 0.88263337,1.0562677 0.71726897,0.64492363 1.575097,0.19223846 H 1.9988434 V 2.4618654 h 0.593245 v 0.4485511 z"
           id="path4"
           sodipodi:nodetypes="cccccccccccc" />
        <path
           d="m 5.6596014,2.0691218 c 0,0.1336696 -0.024805,0.2542479 -0.074414,0.3617348 C 5.5355781,2.5369654 5.459097,2.6279158 5.3557442,2.7037079 5.2537695,2.7781219 5.124923,2.8353104 4.9692048,2.8752735 c -0.1557181,0.039963 -0.338997,0.059945 -0.5498367,0.059945 -0.046853,0 -0.096463,-0.00138 -0.148828,-0.00413 -0.050987,-0.00138 -0.1019747,-0.00414 -0.1529622,-0.00827 -0.050987,-0.00275 -0.1005967,-0.00689 -0.148828,-0.012402 -0.048231,-0.00413 -0.091639,-0.00965 -0.1302245,-0.016536 V 2.4556612 c 0.086816,0.016537 0.183968,0.030317 0.2914549,0.041341 0.1088649,0.00965 0.221864,0.014469 0.3389971,0.014469 0.1143771,0 0.2129067,-0.00965 0.2955889,-0.028939 0.082682,-0.019293 0.1508951,-0.046853 0.2046385,-0.082682 C 5.0229478,2.3626432 5.0622218,2.3171672 5.087027,2.2634246 5.11321,2.2096816 5.126301,2.1490476 5.126301,2.0815237 5.126301,2.0222687 5.11321,1.9685249 5.087027,1.9202933 5.0608443,1.8720624 5.0208812,1.8314105 4.9671378,1.7983376 4.9133943,1.7638867 4.8444925,1.7377039 4.7604322,1.7197894 4.67775,1.7004969 4.5792204,1.6908507 4.4648433,1.6908507 H 4.1651202 V 1.3063783 h 0.2749184 c 0.1074869,0 0.1963703,-0.010335 0.2666502,-0.031006 0.071658,-0.022049 0.1281574,-0.050987 0.1694985,-0.086816 0.042719,-0.035829 0.073036,-0.077859 0.09095,-0.1260904 0.017915,-0.049609 0.026872,-0.10128571 0.026872,-0.15502916 0,-0.11024297 -0.035829,-0.19361421 -0.1074869,-0.25011373 -0.071658,-0.0578775 -0.1825899,-0.0868163 -0.3327959,-0.0868163 -0.1074869,0 -0.2135958,0.0103353 -0.3183266,0.0310058 -0.1047308,0.0206705 -0.2129067,0.0482313 -0.3245277,0.0826822 V 0.26044825 c 0.062012,-0.0206705 0.1212676,-0.037896 0.1777668,-0.0516764 0.056499,-0.0137804 0.1129988,-0.0254937 0.1694985,-0.0351399 0.056499,-0.009646 0.1136879,-0.0165365 0.1715656,-0.0206706 0.057877,-0.004134 0.117822,-0.006201 0.1798339,-0.006201 0.148828,0 0.2790525,0.0158474 0.3906735,0.0475423 0.112999,0.0316949 0.2073945,0.0771701 0.2831866,0.13642567 0.07717,0.0578775 0.1350476,0.12884644 0.1736326,0.21290672 0.038585,0.0840603 0.057878,0.17776678 0.057878,0.28111955 0,0.16398642 -0.037896,0.29696691 -0.1136881,0.39894171 -0.074414,0.1005967 -0.1791448,0.1777668 -0.3141924,0.2315102 0.086816,0.013781 0.1653644,0.037896 0.2356443,0.072347 0.07028,0.033073 0.1302246,0.076481 0.1798339,0.1302245 0.050987,0.052365 0.089572,0.1129989 0.1157551,0.1819009 0.027561,0.068902 0.041341,0.1453828 0.041341,0.2294429 z"
           id="path1" />
        <path
           d="M 5.2916665,5.5355796 V 6.0854163 H 4.7997073 V 5.5355796 H 3.5429375 V 5.1035649 L 4.5971358,3.3837747 h 0.6945307 v 1.7073879 h 0.409277 v 0.444417 z M 4.8059084,3.8715998 4.0369638,5.0911626 h 0.7689446 z"
           id="path5"
           sodipodi:nodetypes="cccccccccccccccc" />
        <path
           d="m 0.79374997,6.0854163 v -0.37207 L 1.4324701,5.0746262 C 1.5523594,4.9547369 1.6481329,4.8513841 1.7197908,4.7645678 1.7928268,4.6777515 1.8486373,4.6005814 1.8872223,4.5330576 c 0.039963,-0.068902 0.066146,-0.1322916 0.078548,-0.1901691 0.012402,-0.057877 0.018603,-0.1178219 0.018603,-0.1798338 0,-0.050987 -0.00827,-0.099219 -0.024805,-0.1446939 C 1.9430316,3.9715075 1.918916,3.9315444 1.8872213,3.8984716 1.8555266,3.8640209 1.8155636,3.8371493 1.7673321,3.8178566 1.7191008,3.7971859 1.6639793,3.7868506 1.6019677,3.7868506 c -0.1061089,0 -0.2046385,0.023427 -0.295589,0.07028 C 1.215429,3.9026057 1.129302,3.9639283 1.0479978,4.0410984 L 0.78134757,3.6979672 C 0.89848067,3.5891023 1.0300833,3.5022859 1.1761552,3.4375182 c 0.14745,-0.066146 0.3066133,-0.099219 0.4774899,-0.099219 0.1322915,0 0.2521807,0.017225 0.3596676,0.051676 0.1074869,0.033073 0.1991264,0.082682 0.2749184,0.148828 0.07717,0.066146 0.1364257,0.1488282 0.1777668,0.2480467 0.042719,0.099219 0.064079,0.2135957 0.064079,0.3431312 0,0.1074869 -0.014469,0.2080836 -0.043408,0.3017901 -0.028939,0.092329 -0.070969,0.1825906 -0.1260908,0.270785 -0.055122,0.088194 -0.1233344,0.1763887 -0.2046385,0.2645831 -0.079926,0.088194 -0.1715657,0.1812118 -0.2749184,0.2790525 l -0.3927406,0.374137 h 1.1389476 v 0.4650875 z"
           id="path1-7" />
      </g>
    </g>
  </g>
  <metadata
     id="metadata4">
    <rdf:RDF>
      <cc:Work
         rdf:about="">
        <dc:title>Numbers 1, 3, 2, and 4</dc:title>
      </cc:Work>
    </rdf:RDF>
  </metadata>
</svg>
